reg.ufo
<glyph name="question.deva" format="1">
  <advance width="791"/>
  <unicode hex="003F"/>
  <outline>
    <contour>
      <point x="260" y="363" type="line"/>
      <point x="260" y="411" type="line" smooth="yes"/>
      <point x="260" y="482"/>
      <point x="271" y="539"/>
      <point x="292" y="584" type="curve" smooth="yes"/>
      <point x="314" y="629"/>
      <point x="354" y="677"/>
      <point x="413" y="728" type="curve" smooth="yes"/>
      <point x="494" y="797"/>
      <point x="546" y="849"/>
      <point x="567" y="884" type="curve" smooth="yes"/>
      <point x="588" y="919"/>
      <point x="599" y="961"/>
      <point x="599" y="1010" type="curve" smooth="yes"/>
      <point x="599" y="1133"/>
      <point x="518" y="1201"/>
      <point x="371" y="1201" type="curve" smooth="yes"/>
      <point x="324" y="1201"/>
      <point x="277" y="1195"/>
      <point x="232" y="1184" type="curve" smooth="yes"/>
      <point x="187" y="1173"/>
      <point x="136" y="1153"/>
      <point x="77" y="1124" type="curve"/>
      <point x="24" y="1246" type="line"/>
      <point x="137" y="1305"/>
      <point x="256" y="1335"/>
      <point x="380" y="1335" type="curve" smooth="yes"/>
      <point x="609" y="1335"/>
      <point x="742" y="1216"/>
      <point x="742" y="1012" type="curve" smooth="yes"/>
      <point x="742" y="968"/>
      <point x="736" y="929"/>
      <point x="724" y="896" type="curve" smooth="yes"/>
      <point x="713" y="863"/>
      <point x="696" y="831"/>
      <point x="673" y="801" type="curve" smooth="yes"/>
      <point x="650" y="772"/>
      <point x="601" y="724"/>
      <point x="526" y="658" type="curve" smooth="yes"/>
      <point x="465" y="606"/>
      <point x="425" y="563"/>
      <point x="405" y="529" type="curve" smooth="yes"/>
      <point x="386" y="495"/>
      <point x="376" y="449"/>
      <point x="376" y="392" type="curve" smooth="yes"/>
      <point x="376" y="363" type="line"/>
    </contour>
    <contour>
      <point x="216" y="95" type="curve" smooth="yes"/>
      <point x="216" y="177"/>
      <point x="252" y="218"/>
      <point x="324" y="218" type="curve" smooth="yes"/>
      <point x="393" y="218"/>
      <point x="433" y="175"/>
      <point x="433" y="95" type="curve" smooth="yes"/>
      <point x="433" y="19"/>
      <point x="392" y="-26"/>
      <point x="324" y="-26" type="curve" smooth="yes"/>
      <point x="261" y="-26"/>
      <point x="216" y="10"/>
    </contour>
  </outline>
</glyph>
<glyph name="X" format="1">
  <advance width="1064"/>
  <unicode hex="0058"/>
  <outline>
    <contour>
      <point x="1057" y="0" type="line"/>
      <point x="883" y="0" type="line"/>
      <point x="529" y="579" type="line"/>
      <point x="169" y="0" type="line"/>
      <point x="7" y="0" type="line"/>
      <point x="445" y="688" type="line"/>
      <point x="37" y="1316" type="line"/>
      <point x="206" y="1316" type="line"/>
      <point x="533" y="795" type="line"/>
      <point x="862" y="1316" type="line"/>
      <point x="1025" y="1316" type="line"/>
      <point x="617" y="693" type="line"/>
    </contour>
  </outline>
</glyph>
<glyph name="f" format="1">
  <advance width="625"/>
  <unicode hex="0066"/>
  <outline>
    <contour>
      <point x="603" y="870" type="line"/>
      <point x="352" y="870" type="line"/>
      <point x="352" y="0" type="line"/>
      <point x="202" y="0" type="line"/>
      <point x="202" y="870" type="line"/>
      <point x="26" y="870" type="line"/>
      <point x="26" y="938" type="line"/>
      <point x="202" y="992" type="line"/>
      <point x="202" y="1047" type="line" smooth="yes"/>
      <point x="202" y="1289"/>
      <point x="308" y="1410"/>
      <point x="520" y="1410" type="curve" smooth="yes"/>
      <point x="572" y="1410"/>
      <point x="633" y="1400"/>
      <point x="704" y="1379" type="curve"/>
      <point x="665" y="1259" type="line"/>
      <point x="608" y="1278"/>
      <point x="558" y="1287"/>
      <point x="517" y="1287" type="curve" smooth="yes"/>
      <point x="405" y="1287"/>
      <point x="352" y="1215"/>
      <point x="352" y="1050" type="curve" smooth="yes"/>
      <point x="352" y="986" type="line"/>
      <point x="603" y="986" type="line"/>
    </contour>
  </outline>
</glyph>
<glyph name="multiply.deva" format="1">
  <advance width="1054"/>
  <unicode hex="00D7"/>
  <outline>
    <contour>
      <point x="846" y="1058" type="line"/>
      <point x="932" y="969" type="line"/>
      <point x="616" y="651" type="line"/>
      <point x="931" y="334" type="line"/>
      <point x="844" y="245" type="line"/>
      <point x="526" y="561" type="line"/>
      <point x="212" y="245" type="line"/>
      <point x="121" y="334" type="line"/>
      <point x="436" y="651" type="line"/>
      <point x="120" y="967" type="line"/>
      <point x="210" y="1058" type="line"/>
      <point x="527" y="739" type="line"/>
    </contour>
  </outline>
</glyph>
<glyph name="anusvaradeva" format="1">
  <advance width="0"/>
  <unicode hex="0902"/>
  <outline>
    <contour>
      <point x="-345" y="1572" type="curve" smooth="yes"/>
      <point x="-318" y="1617"/>
      <point x="-287" y="1621"/>
      <point x="-250" y="1605" type="curve" smooth="yes"/>
      <point x="-213" y="1589"/>
      <point x="-206" y="1548"/>
      <point x="-233" y="1503" type="curve" smooth="yes"/>
      <point x="-259" y="1458"/>
      <point x="-292" y="1453"/>
      <point x="-329" y="1470" type="curve" smooth="yes"/>
      <point x="-366" y="1486"/>
      <point x="-372" y="1528"/>
    </contour>
    <contour>
      <point x="49" y="8" type="move" name="x12"/>
    </contour>
    <contour>
      <point x="-424" y="1282" type="move" name="_mark0"/>
    </contour>
  </outline>
</glyph>
<glyph name="ideva" format="1">
  <advance width="985"/>
  <unicode hex="0907"/>
  <outline>
    <contour>
      <point x="475" y="142" type="curve" smooth="yes"/>
      <point x="749" y="-154" type="line"/>
      <point x="648" y="-223" type="line"/>
      <point x="327" y="134" type="line"/>
      <point x="456" y="70" type="line"/>
      <point x="221" y="74"/>
      <point x="139" y="158"/>
      <point x="139" y="212" type="curve" smooth="yes"/>
      <point x="139" y="259"/>
      <point x="176" y="305"/>
      <point x="242" y="305" type="curve" smooth="yes"/>
      <point x="312" y="305"/>
      <point x="381" y="244"/>
    </contour>
    <contour>
      <point x="624" y="1200" type="line"/>
      <point x="772" y="1200" type="line"/>
      <point x="772" y="837" type="line"/>
      <point x="430" y="837" type="line"/>
      <point x="278" y="837"/>
      <point x="236" y="783"/>
      <point x="237" y="711" type="curve" smooth="yes"/>
      <point x="237" y="646"/>
      <point x="284" y="598"/>
      <point x="385" y="561" type="curve"/>
      <point x="310" y="564" type="line"/>
      <point x="410" y="606"/>
      <point x="478" y="627"/>
      <point x="590" y="627" type="curve" smooth="yes"/>
      <point x="754" y="627"/>
      <point x="877" y="526"/>
      <point x="877" y="360" type="curve" smooth="yes"/>
      <point x="877" y="195"/>
      <point x="693" y="75"/>
      <point x="441" y="75" type="curve"/>
      <point x="421" y="190" type="line"/>
      <point x="606" y="190"/>
      <point x="736" y="264"/>
      <point x="736" y="369" type="curve" smooth="yes"/>
      <point x="736" y="457"/>
      <point x="674" y="505"/>
      <point x="578" y="505" type="curve" smooth="yes"/>
      <point x="493" y="505"/>
      <point x="428" y="487"/>
      <point x="352" y="452" type="curve"/>
      <point x="342" y="452" type="line"/>
      <point x="160" y="536"/>
      <point x="99" y="628"/>
      <point x="99" y="742" type="curve" smooth="yes"/>
      <point x="99" y="862"/>
      <point x="184" y="950"/>
      <point x="402" y="950" type="curve" smooth="yes"/>
      <point x="670" y="950" type="line"/>
      <point x="624" y="904" type="line"/>
    </contour>
    <contour>
      <point x="1009" y="1165" type="line"/>
      <point x="-19" y="1165" type="line"/>
      <point x="-19" y="1279" type="line"/>
      <point x="1009" y="1279" type="line"/>
    </contour>
    <contour>
      <point x="679" y="1282" type="move" name="mark0"/>
    </contour>
    <contour>
      <point x="34" y="8" type="move" name="x51"/>
    </contour>
  </outline>
</glyph>
<glyph name="uudeva" format="1">
  <advance width="1409"/>
  <unicode hex="090A"/>
  <outline>
    <contour>
      <point x="816" y="510" type="curve"/>
      <point x="749" y="648" type="line"/>
      <point x="828" y="694"/>
      <point x="919" y="736"/>
      <point x="1060" y="736" type="curve" smooth="yes"/>
      <point x="1245" y="736"/>
      <point x="1377" y="615"/>
      <point x="1377" y="431" type="curve" smooth="yes"/>
      <point x="1377" y="308"/>
      <point x="1335" y="208"/>
      <point x="1255" y="91" type="curve"/>
      <point x="1126" y="143" type="line"/>
      <point x="1205" y="268"/>
      <point x="1240" y="348"/>
      <point x="1240" y="449" type="curve" smooth="yes"/>
      <point x="1240" y="545"/>
      <point x="1173" y="609"/>
      <point x="1063" y="609" type="curve" smooth="yes"/>
      <point x="967" y="609"/>
      <point x="886" y="571"/>
    </contour>
    <contour>
      <point x="1023" y="1165" type="line"/>
      <point x="1023" y="1279" type="line"/>
      <point x="1450" y="1279" type="line"/>
      <point x="1450" y="1165" type="line"/>
    </contour>
    <component base="udeva"/>
    <contour>
      <point x="866" y="1282" type="move" name="mark0"/>
    </contour>
    <contour>
      <point x="34" y="8" type="move" name="x53"/>
    </contour>
  </outline>
</glyph>
<glyph name="khadeva" format="1">
  <advance width="1639"/>
  <unicode hex="0916"/>
  <outline>
    <contour>
      <point x="1290" y="648" type="curve"/>
      <point x="1290" y="488" type="line"/>
      <point x="1218" y="443"/>
      <point x="1141" y="410"/>
      <point x="1053" y="410" type="curve" smooth="yes"/>
      <point x="877" y="410"/>
      <point x="729" y="538"/>
      <point x="729" y="715" type="curve" smooth="yes"/>
      <point x="729" y="851"/>
      <point x="838" y="956"/>
      <point x="1020" y="956" type="curve" smooth="yes"/>
      <point x="1124" y="956"/>
      <point x="1219" y="926"/>
      <point x="1306" y="877" type="curve"/>
      <point x="1306" y="763" type="line"/>
      <point x="1231" y="813"/>
      <point x="1136" y="841"/>
      <point x="1054" y="841" type="curve" smooth="yes"/>
      <point x="915" y="841"/>
      <point x="857" y="762"/>
      <point x="857" y="685" type="curve" smooth="yes"/>
      <point x="857" y="601"/>
      <point x="935" y="527"/>
      <point x="1030" y="527" type="curve" smooth="yes"/>
      <point x="1122" y="527"/>
      <point x="1211" y="562"/>
    </contour>
    <contour>
      <point x="216" y="653" type="line"/>
      <point x="401" y="724"/>
      <point x="451" y="811"/>
      <point x="451" y="980" type="curve" smooth="yes"/>
      <point x="451" y="1209" type="line"/>
      <point x="605" y="1209" type="line"/>
      <point x="605" y="966" type="line"/>
      <point x="605" y="784"/>
      <point x="551" y="629"/>
      <point x="300" y="525" type="curve"/>
    </contour>
    <contour>
      <point x="-25" y="1165" type="line"/>
      <point x="-25" y="1279" type="line"/>
      <point x="1658" y="1279" type="line"/>
      <point x="1658" y="1165" type="line"/>
    </contour>
    <contour>
      <point x="275" y="614" type="line"/>
      <point x="450" y="283"/>
      <point x="717" y="175"/>
      <point x="944" y="175" type="curve" smooth="yes"/>
      <point x="1095" y="175"/>
      <point x="1183" y="195"/>
      <point x="1310" y="271" type="curve"/>
      <point x="1335" y="141" type="line"/>
      <point x="1213" y="89"/>
      <point x="1105" y="63"/>
      <point x="943" y="63" type="curve" smooth="yes"/>
      <point x="758" y="63"/>
      <point x="534" y="114"/>
      <point x="351" y="297" type="curve" smooth="yes"/>
      <point x="189" y="458"/>
      <point x="59" y="696"/>
      <point x="59" y="754" type="curve" smooth="yes"/>
      <point x="59" y="788"/>
      <point x="86" y="813"/>
      <point x="124" y="813" type="curve" smooth="yes"/>
      <point x="163" y="813"/>
      <point x="195" y="778"/>
      <point x="232" y="720" type="curve" smooth="yes"/>
      <point x="282" y="638" type="line"/>
    </contour>
    <contour>
      <point x="1258" y="1196" type="line"/>
      <point x="1411" y="1196" type="line"/>
      <point x="1411" y="0" type="line"/>
      <point x="1258" y="0" type="line"/>
    </contour>
  </outline>
</glyph>
<glyph name="ghadeva" format="1">
  <advance width="1347"/>
  <unicode hex="0918"/>
  <outline>
    <contour>
      <point x="454" y="754" type="line"/>
      <point x="243" y="807"/>
      <point x="154" y="925"/>
      <point x="154" y="1068" type="curve" smooth="yes"/>
      <point x="154" y="1130"/>
      <point x="169" y="1184"/>
      <point x="206" y="1240" type="curve"/>
      <point x="355" y="1206" type="line"/>
      <point x="317" y="1145"/>
      <point x="304" y="1109"/>
      <point x="304" y="1053" type="curve" smooth="yes"/>
      <point x="304" y="961"/>
      <point x="363" y="873"/>
      <point x="576" y="844" type="curve"/>
    </contour>
    <contour>
      <point x="-39" y="1165" type="line"/>
      <point x="-39" y="1279" type="line"/>
      <point x="1368" y="1279" type="line"/>
      <point x="1368" y="1165" type="line"/>
    </contour>
    <contour>
      <point x="1000" y="558" type="curve"/>
      <point x="1001" y="356" type="line"/>
      <point x="911" y="288"/>
      <point x="782" y="250"/>
      <point x="667" y="250" type="curve" smooth="yes"/>
      <point x="458" y="250"/>
      <point x="314" y="387"/>
      <point x="314" y="570" type="curve" smooth="yes"/>
      <point x="314" y="720"/>
      <point x="427" y="875"/>
      <point x="709" y="875" type="curve" smooth="yes"/>
      <point x="721" y="875" type="line"/>
      <point x="760" y="754" type="line"/>
      <point x="746" y="754" type="line"/>
      <point x="527" y="751"/>
      <point x="452" y="657"/>
      <point x="452" y="549" type="curve" smooth="yes"/>
      <point x="452" y="445"/>
      <point x="539" y="376"/>
      <point x="648" y="376" type="curve" smooth="yes"/>
      <point x="777" y="377"/>
      <point x="908" y="442"/>
    </contour>
    <contour>
      <point x="966" y="1196" type="line"/>
      <point x="1120" y="1196" type="line"/>
      <point x="1120" y="0" type="line"/>
      <point x="966" y="0" type="line"/>
    </contour>
  </outline>
</glyph>
<glyph name="cadeva" format="1">
  <advance width="1310"/>
  <unicode hex="091A"/>
  <outline>
    <contour>
      <point x="57" y="768" type="line"/>
      <point x="57" y="891" type="line"/>
      <point x="761" y="891" type="line"/>
      <point x="761" y="768" type="line"/>
    </contour>
    <contour>
      <point x="962" y="575" type="curve"/>
      <point x="962" y="376" type="line"/>
      <point x="898" y="314"/>
      <point x="812" y="253"/>
      <point x="665" y="253" type="curve" smooth="yes"/>
      <point x="440" y="253"/>
      <point x="298" y="393"/>
      <point x="298" y="576" type="curve" smooth="yes"/>
      <point x="298" y="733"/>
      <point x="409" y="877"/>
      <point x="639" y="877" type="curve"/>
      <point x="670" y="769" type="line"/>
      <point x="526" y="770"/>
      <point x="441" y="664"/>
      <point x="441" y="558" type="curve" smooth="yes"/>
      <point x="441" y="457"/>
      <point x="534" y="380"/>
      <point x="647" y="380" type="curve" smooth="yes"/>
      <point x="767" y="380"/>
      <point x="873" y="437"/>
    </contour>
    <contour>
      <point x="-18" y="1165" type="line"/>
      <point x="-18" y="1279" type="line"/>
      <point x="1330" y="1279" type="line"/>
      <point x="1330" y="1165" type="line"/>
    </contour>
    <contour>
      <point x="929" y="1196" type="line"/>
      <point x="1082" y="1196" type="line"/>
      <point x="1082" y="0" type="line"/>
      <point x="929" y="0" type="line"/>
    </contour>
  </outline>
</glyph>
<glyph name="chadeva" format="1">
  <advance width="1437"/>
  <unicode hex="091B"/>
  <outline>
    <contour>
      <point x="631" y="774" type="curve"/>
      <point x="671" y="654" type="line"/>
      <point x="669" y="654"/>
      <point x="666" y="654"/>
      <point x="665" y="654" type="curve" smooth="yes"/>
      <point x="430" y="649"/>
      <point x="356" y="535"/>
      <point x="356" y="427" type="curve" smooth="yes"/>
      <point x="356" y="303"/>
      <point x="464" y="202"/>
      <point x="658" y="202" type="curve" smooth="yes"/>
      <point x="947" y="202"/>
      <point x="1215" y="455"/>
      <point x="1215" y="671" type="curve" smooth="yes"/>
      <point x="1215" y="806"/>
      <point x="1145" y="877"/>
      <point x="1057" y="877" type="curve" smooth="yes"/>
      <point x="984" y="877"/>
      <point x="930" y="804"/>
      <point x="930" y="716" type="curve" smooth="yes"/>
      <point x="930" y="619"/>
      <point x="1003" y="523"/>
      <point x="1193" y="395" type="curve"/>
      <point x="1123" y="312" type="line"/>
      <point x="908" y="448"/>
      <point x="800" y="571"/>
      <point x="800" y="745" type="curve" smooth="yes"/>
      <point x="800" y="867"/>
      <point x="886" y="995"/>
      <point x="1036" y="995" type="curve" smooth="yes"/>
      <point x="1213" y="995"/>
      <point x="1341" y="874"/>
      <point x="1341" y="662" type="curve" smooth="yes"/>
      <point x="1341" y="384"/>
      <point x="1036" y="76"/>
      <point x="671" y="76" type="curve" smooth="yes"/>
      <point x="356" y="76"/>
      <point x="209" y="252"/>
      <point x="209" y="449" type="curve" smooth="yes"/>
      <point x="209" y="617"/>
      <point x="343" y="771"/>
      <point x="626" y="774" type="curve" smooth="yes"/>
      <point x="628" y="774"/>
      <point x="629" y="774"/>
    </contour>
    <contour>
      <point x="515" y="739" type="curve"/>
      <point x="397" y="651" type="line"/>
      <point x="206" y="705"/>
      <point x="120" y="823"/>
      <point x="120" y="974" type="curve" smooth="yes"/>
      <point x="120" y="1085"/>
      <point x="197" y="1222"/>
      <point x="426" y="1263" type="curve"/>
      <point x="515" y="1186" type="line"/>
      <point x="336" y="1160"/>
      <point x="267" y="1051"/>
      <point x="267" y="958" type="curve" smooth="yes"/>
      <point x="267" y="870"/>
      <point x="315" y="773"/>
    </contour>
    <contour>
      <point x="1449" y="1165" type="line"/>
      <point x="-39" y="1165" type="line"/>
      <point x="-39" y="1279" type="line"/>
      <point x="1449" y="1279" type="line"/>
    </contour>
    <contour>
      <point x="978" y="1224" type="line"/>
      <point x="1132" y="1224" type="line"/>
      <point x="1132" y="940" type="line"/>
      <point x="978" y="940" type="line"/>
    </contour>
    <contour>
      <point x="845" y="8" type="move" name="mark0"/>
    </contour>
    <contour>
      <point x="-57" y="8" type="move" name="x65"/>
    </contour>
    <contour>
      <point x="1620" y="8" type="move" name="x66"/>
    </contour>
  </outline>
</glyph>
<glyph name="jhadeva" format="1">
  <advance width="1523"/>
  <unicode hex="091D"/>
  <outline>
    <contour>
      <point x="1188" y="404" type="line"/>
      <point x="1149" y="383"/>
      <point x="1060" y="364"/>
      <point x="995" y="364" type="curve" smooth="yes"/>
      <point x="912" y="365"/>
      <point x="829" y="378"/>
      <point x="791" y="386" type="curve"/>
      <point x="791" y="404"/>
      <point x="783" y="476"/>
      <point x="783" y="505" type="curve"/>
      <point x="817" y="491"/>
      <point x="907" y="483"/>
      <point x="952" y="483" type="curve" smooth="yes"/>
      <point x="1025" y="483"/>
      <point x="1108" y="502"/>
      <point x="1188" y="556" type="curve"/>
    </contour>
    <contour>
      <point x="1142" y="1196" type="line"/>
      <point x="1296" y="1196" type="line"/>
      <point x="1296" y="0" type="line"/>
      <point x="1142" y="0" type="line"/>
    </contour>
    <contour>
      <point x="1542" y="1165" type="line"/>
      <point x="922" y="1165" type="line"/>
      <point x="922" y="1279" type="line"/>
      <point x="1542" y="1279" type="line"/>
    </contour>
    <component base="ideva"/>
  </outline>
</glyph>
<glyph name="tthadeva" format="1">
  <advance width="1202"/>
  <unicode hex="0920"/>
  <outline>
    <contour>
      <point x="918" y="506" type="curve" smooth="yes"/>
      <point x="918" y="621"/>
      <point x="839" y="730"/>
      <point x="727" y="766" type="curve"/>
      <point x="584" y="766" type="line"/>
      <point x="348" y="766"/>
      <point x="240" y="653"/>
      <point x="240" y="496" type="curve" smooth="yes"/>
      <point x="240" y="351"/>
      <point x="364" y="231"/>
      <point x="586" y="231" type="curve" smooth="yes"/>
      <point x="786" y="231"/>
      <point x="918" y="348"/>
    </contour>
    <contour>
      <point x="1201" y="1165" type="line"/>
      <point x="-26" y="1165" type="line"/>
      <point x="-26" y="1279" type="line"/>
      <point x="1201" y="1279" type="line"/>
    </contour>
    <contour>
      <point x="650" y="1200" type="line"/>
      <point x="799" y="1200" type="line"/>
      <point x="799" y="829" type="line"/>
      <point x="764" y="877" type="line"/>
      <point x="937" y="820"/>
      <point x="1057" y="670"/>
      <point x="1057" y="487" type="curve" smooth="yes"/>
      <point x="1057" y="274"/>
      <point x="898" y="110"/>
      <point x="619" y="110" type="curve" smooth="yes"/>
      <point x="262" y="110"/>
      <point x="91" y="302"/>
      <point x="91" y="522" type="curve" smooth="yes"/>
      <point x="91" y="724"/>
      <point x="250" y="884"/>
      <point x="512" y="884" type="curve" smooth="yes"/>
      <point x="690" y="884" type="line"/>
      <point x="650" y="850" type="line"/>
    </contour>
    <contour>
      <point x="601" y="8" type="move" name="mark0"/>
    </contour>
    <contour>
      <point x="-17" y="8" type="move" name="x34"/>
    </contour>
    <contour>
      <point x="1347" y="8" type="move" name="x35"/>
    </contour>
  </outline>
</glyph>
<glyph name="ddadeva" format="1">
  <advance width="1130"/>
  <unicode hex="0921"/>
  <outline>
    <contour>
      <point x="741" y="1200" type="line"/>
      <point x="890" y="1200" type="line"/>
      <point x="890" y="837" type="line"/>
      <point x="496" y="837" type="line"/>
      <point x="368" y="837"/>
      <point x="325" y="788"/>
      <point x="325" y="708" type="curve" smooth="yes"/>
      <point x="325" y="643"/>
      <point x="380" y="590"/>
      <point x="472" y="553" type="curve"/>
      <point x="397" y="557" type="line"/>
      <point x="514" y="610"/>
      <point x="582" y="625"/>
      <point x="669" y="625" type="curve" smooth="yes"/>
      <point x="869" y="625"/>
      <point x="993" y="521"/>
      <point x="993" y="341" type="curve" smooth="yes"/>
      <point x="993" y="167"/>
      <point x="846" y="57"/>
      <point x="611" y="57" type="curve" smooth="yes"/>
      <point x="452" y="57"/>
      <point x="321" y="99"/>
      <point x="133" y="204" type="curve"/>
      <point x="159" y="328" type="line"/>
      <point x="340" y="217"/>
      <point x="477" y="173"/>
      <point x="598" y="173" type="curve" smooth="yes"/>
      <point x="751" y="173"/>
      <point x="852" y="249"/>
      <point x="852" y="345" type="curve" smooth="yes"/>
      <point x="852" y="455"/>
      <point x="790" y="504"/>
      <point x="661" y="504" type="curve" smooth="yes"/>
      <point x="577" y="504"/>
      <point x="522" y="486"/>
      <point x="438" y="444" type="curve"/>
      <point x="428" y="444" type="line"/>
      <point x="254" y="528"/>
      <point x="188" y="625"/>
      <point x="188" y="739" type="curve" smooth="yes"/>
      <point x="188" y="859"/>
      <point x="274" y="950"/>
      <point x="468" y="950" type="curve" smooth="yes"/>
      <point x="787" y="950" type="line"/>
      <point x="741" y="904" type="line"/>
    </contour>
    <contour>
      <point x="1133" y="1165" type="line"/>
      <point x="-18" y="1165" type="line"/>
      <point x="-18" y="1279" type="line"/>
      <point x="1133" y="1279" type="line"/>
    </contour>
    <contour>
      <point x="1263" y="8" type="move" name="x45"/>
    </contour>
    <contour>
      <point x="-256" y="8" type="move" name="x44"/>
    </contour>
    <contour>
      <point x="549" y="8" type="move" name="mark0"/>
    </contour>
  </outline>
</glyph>
<glyph name="ddhadeva" format="1">
  <advance width="1094"/>
  <unicode hex="0922"/>
  <outline>
    <contour>
      <point x="1109" y="1165" type="line"/>
      <point x="-66" y="1165" type="line"/>
      <point x="-66" y="1279" type="line"/>
      <point x="1109" y="1279" type="line"/>
    </contour>
    <contour>
      <point x="679" y="1195" type="line"/>
      <point x="828" y="1195" type="line"/>
      <point x="828" y="771" type="line"/>
      <point x="578" y="771" type="line"/>
      <point x="327" y="771"/>
      <point x="224" y="653"/>
      <point x="224" y="487" type="curve" smooth="yes"/>
      <point x="224" y="333"/>
      <point x="381" y="184"/>
      <point x="616" y="184" type="curve" smooth="yes"/>
      <point x="805" y="184"/>
      <point x="880" y="253"/>
      <point x="880" y="334" type="curve" smooth="yes"/>
      <point x="880" y="397"/>
      <point x="830" y="448"/>
      <point x="746" y="448" type="curve" smooth="yes"/>
      <point x="658" y="448"/>
      <point x="595" y="388"/>
      <point x="595" y="299" type="curve" smooth="yes"/>
      <point x="595" y="248"/>
      <point x="607" y="204"/>
      <point x="640" y="152" type="curve"/>
      <point x="521" y="138" type="line"/>
      <point x="481" y="203"/>
      <point x="466" y="256"/>
      <point x="466" y="329" type="curve" smooth="yes"/>
      <point x="466" y="445"/>
      <point x="566" y="556"/>
      <point x="731" y="556" type="curve" smooth="yes"/>
      <point x="902" y="556"/>
      <point x="1006" y="458"/>
      <point x="1006" y="324" type="curve" smooth="yes"/>
      <point x="1006" y="198"/>
      <point x="883" y="83"/>
      <point x="640" y="83" type="curve" smooth="yes"/>
      <point x="281" y="83"/>
      <point x="75" y="296"/>
      <point x="75" y="517" type="curve" smooth="yes"/>
      <point x="75" y="720"/>
      <point x="223" y="884"/>
      <point x="507" y="884" type="curve" smooth="yes"/>
      <point x="720" y="884" type="line"/>
      <point x="679" y="850" type="line"/>
    </contour>
    <contour>
      <point x="518" y="8" type="move" name="mark0"/>
    </contour>
    <contour>
      <point x="1166" y="8" type="move" name="x44"/>
    </contour>
    <contour>
      <point x="-162" y="8" type="move" name="x43"/>
    </contour>
  </outline>
</glyph>
<glyph name="tadeva" format="1">
  <advance width="1169"/>
  <unicode hex="0924"/>
  <outline>
    <contour>
      <point x="839" y="883" type="line"/>
      <point x="839" y="754" type="line"/>
      <point x="518" y="754" type="line"/>
      <point x="361" y="754"/>
      <point x="275" y="658"/>
      <point x="275" y="523" type="curve" smooth="yes"/>
      <point x="275" y="394"/>
      <point x="330" y="253"/>
      <point x="481" y="18" type="curve"/>
      <point x="358" y="-19" type="line"/>
      <point x="203" y="215"/>
      <point x="132" y="399"/>
      <point x="132" y="560" type="curve" smooth="yes"/>
      <point x="132" y="748"/>
      <point x="242" y="883"/>
      <point x="478" y="883" type="curve" smooth="yes"/>
    </contour>
    <contour>
      <point x="-27" y="1165" type="line"/>
      <point x="-27" y="1279" type="line"/>
      <point x="1188" y="1279" type="line"/>
      <point x="1188" y="1165" type="line"/>
    </contour>
    <contour>
      <point x="788" y="1196" type="line"/>
      <point x="941" y="1196" type="line"/>
      <point x="941" y="0" type="line"/>
      <point x="788" y="0" type="line"/>
    </contour>
  </outline>
</glyph>
<glyph name="thadeva" format="1">
  <advance width="1263"/>
  <unicode hex="0925"/>
  <outline>
    <contour>
      <point x="616" y="956" type="curve" smooth="yes"/>
      <point x="616" y="771"/>
      <point x="478" y="613"/>
      <point x="250" y="521" type="curve"/>
      <point x="254" y="582" type="line"/>
      <point x="340" y="455"/>
      <point x="456" y="387"/>
      <point x="573" y="387" type="curve" smooth="yes"/>
      <point x="717" y="387"/>
      <point x="844" y="450"/>
      <point x="933" y="593" type="curve"/>
      <point x="934" y="399" type="line"/>
      <point x="860" y="310"/>
      <point x="745" y="260"/>
      <point x="610" y="260" type="curve" smooth="yes"/>
      <point x="414" y="260"/>
      <point x="217" y="378"/>
      <point x="106" y="596" type="curve"/>
      <point x="106" y="599" type="line"/>
      <point x="369" y="694"/>
      <point x="484" y="841"/>
      <point x="484" y="986" type="curve" smooth="yes"/>
      <point x="484" y="1112"/>
      <point x="406" y="1196"/>
      <point x="309" y="1196" type="curve" smooth="yes"/>
      <point x="223" y="1196"/>
      <point x="192" y="1142"/>
      <point x="192" y="1078" type="curve" smooth="yes"/>
      <point x="193" y="971"/>
      <point x="293" y="891"/>
      <point x="490" y="838" type="curve"/>
      <point x="436" y="753" type="line"/>
      <point x="171" y="822"/>
      <point x="52" y="958"/>
      <point x="52" y="1113" type="curve" smooth="yes"/>
      <point x="52" y="1223"/>
      <point x="134" y="1313"/>
      <point x="289" y="1313" type="curve" smooth="yes"/>
      <point x="498" y="1313"/>
      <point x="616" y="1147"/>
    </contour>
    <contour>
      <point x="882" y="1196" type="line"/>
      <point x="1036" y="1196" type="line"/>
      <point x="1036" y="0" type="line"/>
      <point x="882" y="0" type="line"/>
    </contour>
    <contour>
      <point x="1282" y="1165" type="line"/>
      <point x="765" y="1165" type="line"/>
      <point x="765" y="1279" type="line"/>
      <point x="1282" y="1279" type="line"/>
    </contour>
  </outline>
</glyph>
<glyph name="dadeva" format="1">
  <advance width="1045"/>
  <unicode hex="0926"/>
  <outline>
    <contour>
      <point x="-36" y="1165" type="line"/>
      <point x="-36" y="1279" type="line"/>
      <point x="1052" y="1279" type="line"/>
      <point x="1052" y="1165" type="line"/>
    </contour>
    <contour>
      <point x="671" y="213" type="line"/>
      <point x="787" y="259" type="line"/>
      <point x="961" y="-96" type="line"/>
      <point x="842" y="-138" type="line"/>
    </contour>
    <contour>
      <point x="558" y="156" type="curve" smooth="yes"/>
      <point x="282" y="156"/>
      <point x="95" y="331"/>
      <point x="95" y="546" type="curve" smooth="yes"/>
      <point x="95" y="732"/>
      <point x="244" y="884"/>
      <point x="524" y="884" type="curve" smooth="yes"/>
      <point x="715" y="884" type="line"/>
      <point x="674" y="836" type="line"/>
      <point x="674" y="1210" type="line"/>
      <point x="822" y="1210" type="line"/>
      <point x="822" y="764" type="line"/>
      <point x="591" y="764" type="line"/>
      <point x="340" y="764"/>
      <point x="246" y="650"/>
      <point x="246" y="513" type="curve" smooth="yes"/>
      <point x="246" y="383"/>
      <point x="379" y="270"/>
      <point x="545" y="270" type="curve" smooth="yes"/>
      <point x="597" y="270"/>
      <point x="649" y="275"/>
      <point x="739" y="312" type="curve"/>
      <point x="655" y="245" type="line"/>
      <point x="627" y="293"/>
      <point x="615" y="339"/>
      <point x="615" y="365" type="curve" smooth="yes"/>
      <point x="615" y="400"/>
      <point x="642" y="430"/>
      <point x="700" y="430" type="curve" smooth="yes"/>
      <point x="833" y="430"/>
      <point x="921" y="377"/>
      <point x="921" y="324" type="curve" smooth="yes"/>
      <point x="921" y="250"/>
      <point x="777" y="156"/>
    </contour>
    <contour>
      <point x="820" y="8" type="move" name="mark0"/>
    </contour>
    <contour>
      <point x="1160" y="8" type="move" name="x43"/>
    </contour>
    <contour>
      <point x="-71" y="8" type="move" name="x42"/>
    </contour>
  </outline>
</glyph>
<glyph name="padeva" format="1">
  <advance width="1145"/>
  <unicode hex="092A"/>
  <outline>
    <contour>
      <point x="1165" y="1165" type="line"/>
      <point x="-38" y="1165" type="line"/>
      <point x="-38" y="1279" type="line"/>
      <point x="1165" y="1279" type="line"/>
    </contour>
    <contour>
      <point x="308" y="1223" type="line"/>
      <point x="308" y="727" type="line"/>
      <point x="308" y="589"/>
      <point x="383" y="514"/>
      <point x="517" y="514" type="curve" smooth="yes"/>
      <point x="610" y="514"/>
      <point x="698" y="536"/>
      <point x="795" y="607" type="curve"/>
      <point x="795" y="446" type="line"/>
      <point x="723" y="410"/>
      <point x="632" y="390"/>
      <point x="544" y="390" type="curve" smooth="yes"/>
      <point x="309" y="390"/>
      <point x="155" y="533"/>
      <point x="155" y="763" type="curve" smooth="yes"/>
      <point x="155" y="1223" type="line"/>
    </contour>
    <contour>
      <point x="764" y="1196" type="line"/>
      <point x="917" y="1196" type="line"/>
      <point x="917" y="0" type="line"/>
      <point x="764" y="0" type="line"/>
    </contour>
  </outline>
</glyph>
<glyph name="phadeva" format="1">
  <advance width="1518"/>
  <unicode hex="092B"/>
  <outline>
    <contour>
      <point x="308" y="1223" type="line"/>
      <point x="308" y="773" type="line"/>
      <point x="308" y="634"/>
      <point x="374" y="550"/>
      <point x="508" y="550" type="curve" smooth="yes"/>
      <point x="599" y="550"/>
      <point x="681" y="575"/>
      <point x="778" y="642" type="curve"/>
      <point x="778" y="481" type="line"/>
      <point x="706" y="445"/>
      <point x="620" y="426"/>
      <point x="532" y="426" type="curve" smooth="yes"/>
      <point x="298" y="426"/>
      <point x="155" y="579"/>
      <point x="155" y="809" type="curve" smooth="yes"/>
      <point x="155" y="1223" type="line"/>
    </contour>
    <contour>
      <point x="884" y="529" type="curve"/>
      <point x="854" y="689" type="line"/>
      <point x="922" y="724"/>
      <point x="1025" y="766"/>
      <point x="1142" y="766" type="curve" smooth="yes"/>
      <point x="1323" y="766"/>
      <point x="1457" y="639"/>
      <point x="1457" y="456" type="curve" smooth="yes"/>
      <point x="1457" y="336"/>
      <point x="1420" y="206"/>
      <point x="1346" y="91" type="curve"/>
      <point x="1217" y="140" type="line"/>
      <point x="1293" y="266"/>
      <point x="1326" y="372"/>
      <point x="1326" y="476" type="curve" smooth="yes"/>
      <point x="1326" y="574"/>
      <point x="1254" y="636"/>
      <point x="1160" y="636" type="curve" smooth="yes"/>
      <point x="1062" y="636"/>
      <point x="962" y="597"/>
    </contour>
    <contour>
      <point x="-53" y="1165" type="line"/>
      <point x="-53" y="1279" type="line"/>
      <point x="1551" y="1279" type="line"/>
      <point x="1551" y="1165" type="line"/>
    </contour>
    <contour>
      <point x="743" y="1196" type="line"/>
      <point x="897" y="1196" type="line"/>
      <point x="897" y="0" type="line"/>
      <point x="743" y="0" type="line"/>
    </contour>
    <contour>
      <point x="862" y="8" type="move" name="x2"/>
    </contour>
    <contour>
      <point x="862" y="8" type="move" name="mark0"/>
    </contour>
    <contour>
      <point x="24" y="8" type="move" name="x43"/>
    </contour>
  </outline>
</glyph>
<glyph name="bhadeva" format="1">
  <advance width="1300"/>
  <unicode hex="092D"/>
  <outline>
    <contour>
      <point x="378" y="1027" type="line"/>
      <point x="378" y="1149"/>
      <point x="324" y="1202"/>
      <point x="236" y="1202" type="curve" smooth="yes"/>
      <point x="157" y="1202"/>
      <point x="123" y="1149"/>
      <point x="122" y="1079" type="curve" smooth="yes"/>
      <point x="121" y="989"/>
      <point x="199" y="900"/>
      <point x="423" y="885" type="curve"/>
      <point x="397" y="784" type="line"/>
      <point x="143" y="796"/>
      <point x="-17" y="917"/>
      <point x="-17" y="1103" type="curve" smooth="yes"/>
      <point x="-17" y="1219"/>
      <point x="58" y="1323"/>
      <point x="225" y="1323" type="curve" smooth="yes"/>
      <point x="421" y="1323"/>
      <point x="531" y="1201"/>
      <point x="531" y="997" type="curve" smooth="yes"/>
      <point x="531" y="613" type="line"/>
      <point x="499" y="642" type="line"/>
      <point x="969" y="642" type="line"/>
      <point x="969" y="518" type="line"/>
      <point x="496" y="518" type="line"/>
      <point x="531" y="546" type="line"/>
      <point x="531" y="407" type="line"/>
      <point x="531" y="363"/>
      <point x="516" y="342"/>
      <point x="472" y="342" type="curve" smooth="yes"/>
      <point x="399" y="342"/>
      <point x="243" y="515"/>
      <point x="243" y="581" type="curve" smooth="yes"/>
      <point x="243" y="620"/>
      <point x="263" y="641"/>
      <point x="306" y="641" type="curve" smooth="yes"/>
      <point x="407" y="641" type="line"/>
      <point x="378" y="612" type="line"/>
    </contour>
    <contour>
      <point x="919" y="1196" type="line"/>
      <point x="1072" y="1196" type="line"/>
      <point x="1072" y="0" type="line"/>
      <point x="919" y="0" type="line"/>
    </contour>
    <contour>
      <point x="1319" y="1165" type="line"/>
      <point x="760" y="1165" type="line"/>
      <point x="760" y="1279" type="line"/>
      <point x="1319" y="1279" type="line"/>
    </contour>
  </outline>
</glyph>
<glyph name="ladeva" format="1">
  <advance width="1388"/>
  <unicode hex="0932"/>
  <outline>
    <contour>
      <point x="1057" y="940" type="line"/>
      <point x="1057" y="755" type="line"/>
      <point x="621" y="352" type="line"/>
      <point x="527" y="448" type="line"/>
    </contour>
    <contour>
      <point x="832" y="662" type="curve"/>
      <point x="744" y="571" type="line"/>
      <point x="627" y="709"/>
      <point x="546" y="751"/>
      <point x="429" y="751" type="curve" smooth="yes"/>
      <point x="307" y="751"/>
      <point x="220" y="649"/>
      <point x="218" y="537" type="curve" smooth="yes"/>
      <point x="217" y="404"/>
      <point x="293" y="284"/>
      <point x="471" y="113" type="curve"/>
      <point x="360" y="49" type="line"/>
      <point x="177" y="229"/>
      <point x="74" y="389"/>
      <point x="74" y="574" type="curve" smooth="yes"/>
      <point x="74" y="744"/>
      <point x="205" y="890"/>
      <point x="411" y="890" type="curve" smooth="yes"/>
      <point x="586" y="890"/>
      <point x="704" y="802"/>
    </contour>
    <contour>
      <point x="-30" y="1165" type="line"/>
      <point x="-30" y="1279" type="line"/>
      <point x="1407" y="1279" type="line"/>
      <point x="1407" y="1165" type="line"/>
    </contour>
    <contour>
      <point x="1007" y="1196" type="line"/>
      <point x="1160" y="1196" type="line"/>
      <point x="1160" y="0" type="line"/>
      <point x="1007" y="0" type="line"/>
    </contour>
  </outline>
</glyph>
<glyph name="vadeva" format="1">
  <advance width="1149"/>
  <unicode hex="0935"/>
  <outline>
    <contour>
      <point x="1167" y="1165" type="line"/>
      <point x="-23" y="1165" type="line"/>
      <point x="-23" y="1279" type="line"/>
      <point x="1167" y="1279" type="line"/>
    </contour>
    <contour>
      <point x="800" y="544" type="curve"/>
      <point x="800" y="370" type="line"/>
      <point x="719" y="292"/>
      <point x="608" y="254"/>
      <point x="514" y="254" type="curve" smooth="yes"/>
      <point x="260" y="254"/>
      <point x="105" y="443"/>
      <point x="105" y="641" type="curve" smooth="yes"/>
      <point x="105" y="814"/>
      <point x="255" y="938"/>
      <point x="452" y="938" type="curve" smooth="yes"/>
      <point x="617" y="938"/>
      <point x="687" y="919"/>
      <point x="833" y="857" type="curve"/>
      <point x="833" y="730" type="line"/>
      <point x="690" y="803"/>
      <point x="624" y="818"/>
      <point x="501" y="818" type="curve" smooth="yes"/>
      <point x="334" y="818"/>
      <point x="246" y="729"/>
      <point x="246" y="610" type="curve" smooth="yes"/>
      <point x="246" y="493"/>
      <point x="336" y="380"/>
      <point x="485" y="380" type="curve" smooth="yes"/>
      <point x="603" y="380"/>
      <point x="702" y="422"/>
    </contour>
    <contour>
      <point x="767" y="1196" type="line"/>
      <point x="921" y="1196" type="line"/>
      <point x="921" y="0" type="line"/>
      <point x="767" y="0" type="line"/>
    </contour>
  </outline>
</glyph>
<glyph name="shadeva" format="1">
  <advance width="1483"/>
  <unicode hex="0936"/>
  <outline>
    <contour>
      <point x="455" y="465" type="line"/>
      <point x="802" y="89" type="line"/>
      <point x="704" y="3" type="line"/>
      <point x="347" y="398" type="line"/>
    </contour>
    <contour>
      <point x="254" y="320" type="curve" smooth="yes"/>
      <point x="193" y="320"/>
      <point x="163" y="382"/>
      <point x="163" y="438" type="curve" smooth="yes"/>
      <point x="163" y="504"/>
      <point x="211" y="590"/>
      <point x="283" y="590" type="curve" smooth="yes"/>
      <point x="334" y="590"/>
      <point x="381" y="554"/>
      <point x="445" y="479" type="curve"/>
      <point x="363" y="483" type="line"/>
      <point x="565" y="551"/>
      <point x="714" y="720"/>
      <point x="714" y="946" type="curve" smooth="yes"/>
      <point x="714" y="1083"/>
      <point x="603" y="1196"/>
      <point x="470" y="1196" type="curve" smooth="yes"/>
      <point x="377" y="1196"/>
      <point x="316" y="1134"/>
      <point x="316" y="1055" type="curve" smooth="yes"/>
      <point x="317" y="954"/>
      <point x="441" y="842"/>
      <point x="752" y="835" type="curve"/>
      <point x="713" y="734" type="line"/>
      <point x="337" y="751"/>
      <point x="180" y="911"/>
      <point x="180" y="1078" type="curve" smooth="yes"/>
      <point x="180" y="1204"/>
      <point x="274" y="1309"/>
      <point x="448" y="1309" type="curve" smooth="yes"/>
      <point x="681" y="1309"/>
      <point x="842" y="1153"/>
      <point x="842" y="917" type="curve" smooth="yes"/>
      <point x="842" y="571"/>
      <point x="462" y="320"/>
    </contour>
    <contour>
      <point x="1102" y="1196" type="line"/>
      <point x="1256" y="1196" type="line"/>
      <point x="1256" y="0" type="line"/>
      <point x="1102" y="0" type="line"/>
    </contour>
    <contour>
      <point x="1503" y="1165" type="line"/>
      <point x="916" y="1165" type="line"/>
      <point x="916" y="1279" type="line"/>
      <point x="1503" y="1279" type="line"/>
    </contour>
  </outline>
</glyph>
<glyph name="sadeva" format="1">
  <advance width="1441"/>
  <unicode hex="0938"/>
  <outline>
    <contour>
      <point x="714" y="63" type="line"/>
      <point x="605" y="-12" type="line"/>
      <point x="123" y="650" type="line"/>
      <point x="79" y="710"/>
      <point x="55" y="751"/>
      <point x="55" y="785" type="curve" smooth="yes"/>
      <point x="55" y="818"/>
      <point x="83" y="843"/>
      <point x="117" y="843" type="curve" smooth="yes"/>
      <point x="155" y="843"/>
      <point x="192" y="796"/>
      <point x="236" y="735" type="curve" smooth="yes"/>
      <point x="333" y="599" type="line"/>
      <point x="337" y="584" type="line"/>
    </contour>
    <contour>
      <point x="230" y="614" type="line"/>
      <point x="405" y="656"/>
      <point x="483" y="763"/>
      <point x="483" y="936" type="curve" smooth="yes"/>
      <point x="483" y="1202" type="line"/>
      <point x="637" y="1202" type="line"/>
      <point x="637" y="913" type="line"/>
      <point x="637" y="736"/>
      <point x="559" y="565"/>
      <point x="316" y="498" type="curve"/>
    </contour>
    <contour>
      <point x="-37" y="1165" type="line"/>
      <point x="-37" y="1279" type="line"/>
      <point x="1460" y="1279" type="line"/>
      <point x="1460" y="1165" type="line"/>
    </contour>
    <contour>
      <point x="475" y="602" type="curve"/>
      <point x="526" y="714" type="line"/>
      <point x="637" y="666"/>
      <point x="740" y="650"/>
      <point x="822" y="650" type="curve" smooth="yes"/>
      <point x="914" y="650"/>
      <point x="1015" y="665"/>
      <point x="1083" y="692" type="curve"/>
      <point x="1083" y="555" type="line"/>
      <point x="1033" y="537"/>
      <point x="942" y="519"/>
      <point x="845" y="519" type="curve" smooth="yes"/>
      <point x="743" y="519"/>
      <point x="617" y="540"/>
    </contour>
    <contour>
      <point x="1060" y="1196" type="line"/>
      <point x="1213" y="1196" type="line"/>
      <point x="1213" y="0" type="line"/>
      <point x="1060" y="0" type="line"/>
    </contour>
  </outline>
</glyph>
<glyph name="hadeva" format="1">
  <advance width="1087"/>
  <unicode hex="0939"/>
  <outline>
    <contour>
      <point x="589" y="621" type="curve" smooth="yes"/>
      <point x="829" y="621"/>
      <point x="954" y="487"/>
      <point x="954" y="335" type="curve" smooth="yes"/>
      <point x="954" y="252"/>
      <point x="929" y="181"/>
      <point x="889" y="116" type="curve"/>
      <point x="764" y="150" type="line"/>
      <point x="797" y="203"/>
      <point x="819" y="263"/>
      <point x="819" y="338" type="curve" smooth="yes"/>
      <point x="819" y="414"/>
      <point x="749" y="500"/>
      <point x="599" y="500" type="curve" smooth="yes"/>
      <point x="433" y="500"/>
      <point x="324" y="395"/>
      <point x="324" y="255" type="curve" smooth="yes"/>
      <point x="324" y="91"/>
      <point x="478" y="-56"/>
      <point x="867" y="-105" type="curve"/>
      <point x="833" y="-213" type="line"/>
      <point x="394" y="-161"/>
      <point x="181" y="28"/>
      <point x="181" y="271" type="curve" smooth="yes"/>
      <point x="181" y="466"/>
      <point x="335" y="621"/>
    </contour>
    <contour>
      <point x="1128" y="1165" type="line"/>
      <point x="-23" y="1165" type="line"/>
      <point x="-23" y="1279" type="line"/>
      <point x="1128" y="1279" type="line"/>
    </contour>
    <contour>
      <point x="746" y="1175" type="line"/>
      <point x="900" y="1175" type="line"/>
      <point x="900" y="843" type="line"/>
      <point x="446" y="843" type="line"/>
      <point x="303" y="843"/>
      <point x="254" y="785"/>
      <point x="254" y="710" type="curve" smooth="yes"/>
      <point x="254" y="641"/>
      <point x="295" y="591"/>
      <point x="415" y="536" type="curve"/>
      <point x="318" y="457" type="line"/>
      <point x="188" y="526"/>
      <point x="108" y="620"/>
      <point x="108" y="744" type="curve" smooth="yes"/>
      <point x="108" y="868"/>
      <point x="202" y="957"/>
      <point x="389" y="957" type="curve" smooth="yes"/>
      <point x="785" y="957" type="line"/>
      <point x="746" y="904" type="line"/>
    </contour>
  </outline>
</glyph>
<glyph name="nuktadeva" format="1">
  <advance width="15"/>
  <unicode hex="093C"/>
  <outline>
    <contour>
      <point x="0" y="0" type="line"/>
      <point x="15" y="0" type="line"/>
      <point x="15" y="20" type="line"/>
      <point x="0" y="20" type="line"/>
    </contour>
  </outline>
</glyph>
<glyph name="avagrahadeva" format="1">
  <advance width="1058"/>
  <unicode hex="093D"/>
  <outline>
    <contour>
      <point x="0" y="0" type="line"/>
      <point x="1058" y="0" type="line"/>
      <point x="1058" y="20" type="line"/>
      <point x="0" y="20" type="line"/>
    </contour>
  </outline>
</glyph>
<glyph name="iivowelsigndeva" format="1">
  <advance width="580"/>
  <unicode hex="0940"/>
  <outline>
    <contour>
      <point x="200" y="1239" type="line"/>
      <point x="110" y="1481"/>
      <point x="-68" y="1657"/>
      <point x="-231" y="1657" type="curve" smooth="yes"/>
      <point x="-332" y="1657"/>
      <point x="-386" y="1599"/>
      <point x="-386" y="1515" type="curve" smooth="yes"/>
      <point x="-386" y="1432"/>
      <point x="-341" y="1362"/>
      <point x="-253" y="1258" type="curve"/>
      <point x="-402" y="1258" type="line"/>
      <point x="-470" y="1331"/>
      <point x="-530" y="1437"/>
      <point x="-530" y="1555" type="curve" smooth="yes"/>
      <point x="-530" y="1668"/>
      <point x="-451" y="1789"/>
      <point x="-260" y="1789" type="curve" smooth="yes"/>
      <point x="-17" y="1789"/>
      <point x="208" y="1584"/>
      <point x="343" y="1239" type="curve"/>
    </contour>
    <component base="aavowelsigndeva"/>
  </outline>
</glyph>
<glyph name="uvowelsigndeva" format="1">
  <advance width="0"/>
  <unicode hex="0941"/>
  <outline>
    <contour>
      <point x="-602" y="-98" type="line"/>
      <point x="-514" y="-31"/>
      <point x="-434" y="13"/>
      <point x="-303" y="13" type="curve" smooth="yes"/>
      <point x="-142" y="13"/>
      <point x="-5" y="-102"/>
      <point x="-5" y="-271" type="curve" smooth="yes"/>
      <point x="-5" y="-443"/>
      <point x="-147" y="-538"/>
      <point x="-331" y="-538" type="curve" smooth="yes"/>
      <point x="-506" y="-538"/>
      <point x="-665" y="-477"/>
      <point x="-851" y="-345" type="curve"/>
      <point x="-808" y="-244" type="line"/>
      <point x="-620" y="-378"/>
      <point x="-475" y="-423"/>
      <point x="-367" y="-423" type="curve" smooth="yes"/>
      <point x="-222" y="-423"/>
      <point x="-132" y="-353"/>
      <point x="-132" y="-258" type="curve" smooth="yes"/>
      <point x="-132" y="-165"/>
      <point x="-210" y="-105"/>
      <point x="-307" y="-105" type="curve" smooth="yes"/>
      <point x="-396" y="-105"/>
      <point x="-472" y="-144"/>
      <point x="-539" y="-204" type="curve"/>
    </contour>
    <contour>
      <point x="49" y="8" type="move" name="x24"/>
    </contour>
    <contour>
      <point x="-424" y="8" type="move" name="_mark0"/>
    </contour>
  </outline>
</glyph>
<glyph name="uuvowelsigndeva" format="1">
  <advance width="0"/>
  <unicode hex="0942"/>
  <outline>
    <contour>
      <point x="-79" y="-484" type="line"/>
      <point x="-182" y="-518"/>
      <point x="-216" y="-526"/>
      <point x="-301" y="-526" type="curve" smooth="yes"/>
      <point x="-470" y="-526"/>
      <point x="-617" y="-409"/>
      <point x="-617" y="-248" type="curve" smooth="yes"/>
      <point x="-617" y="-103"/>
      <point x="-494" y="15"/>
      <point x="-318" y="15" type="curve" smooth="yes"/>
      <point x="-99" y="15"/>
      <point x="59" y="-78"/>
      <point x="286" y="-372" type="curve"/>
      <point x="215" y="-462" type="line"/>
      <point x="1" y="-196"/>
      <point x="-130" y="-115"/>
      <point x="-280" y="-115" type="curve" smooth="yes"/>
      <point x="-416" y="-115"/>
      <point x="-480" y="-184"/>
      <point x="-480" y="-272" type="curve" smooth="yes"/>
      <point x="-480" y="-346"/>
      <point x="-414" y="-412"/>
      <point x="-301" y="-412" type="curve" smooth="yes"/>
      <point x="-236" y="-412"/>
      <point x="-192" y="-402"/>
      <point x="-120" y="-369" type="curve"/>
    </contour>
    <contour>
      <point x="49" y="8" type="move" name="x24"/>
    </contour>
    <contour>
      <point x="-424" y="8" type="move" name="_mark0"/>
    </contour>
  </outline>
</glyph>
<glyph name="viramadeva" format="1">
  <advance width="-1"/>
  <unicode hex="094D"/>
  <outline>
    <contour>
      <point x="-392" y="-86" type="line"/>
      <point x="88" y="-329" type="line"/>
      <point x="37" y="-435" type="line"/>
      <point x="-445" y="-197" type="line"/>
    </contour>
    <contour>
      <point x="49" y="8" type="move" name="x12"/>
    </contour>
    <contour>
      <point x="-424" y="8" type="move" name="_mark0"/>
    </contour>
  </outline>
</glyph>
<glyph name="anudattadeva" format="1">
  <advance width="23"/>
  <unicode hex="0952"/>
  <outline>
    <contour>
      <point x="-869" y="-318" type="line"/>
      <point x="-869" y="-203" type="line"/>
      <point x="-175" y="-203" type="line"/>
      <point x="-175" y="-318" type="line"/>
    </contour>
  </outline>
</glyph>
<glyph name="rrvocalicdeva" format="1">
  <advance width="1759"/>
  <unicode hex="0960"/>
  <outline>
    <contour>
      <point x="0" y="0" type="line"/>
      <point x="1759" y="0" type="line"/>
      <point x="1759" y="20" type="line"/>
      <point x="0" y="20" type="line"/>
    </contour>
  </outline>
</glyph>
<glyph name="onedeva" format="1">
  <advance width="1212"/>
  <unicode hex="0967"/>
  <outline>
    <contour>
      <point x="0" y="0" type="line"/>
      <point x="1212" y="0" type="line"/>
      <point x="1212" y="20" type="line"/>
      <point x="0" y="20" type="line"/>
    </contour>
  </outline>
</glyph>
<glyph name="sevendeva" format="1">
  <advance width="1181"/>
  <unicode hex="096D"/>
  <outline>
    <contour>
      <point x="441" y="1025" type="curve"/>
      <point x="460" y="800"/>
      <point x="476" y="211"/>
      <point x="795" y="211" type="curve"/>
      <point x="875" y="244"/>
      <point x="858" y="414"/>
      <point x="858" y="614" type="curve" smooth="yes"/>
      <point x="858" y="773"/>
      <point x="835" y="1026"/>
      <point x="718" y="1026" type="curve" smooth="yes"/>
      <point x="710" y="1026"/>
      <point x="721" y="926"/>
      <point x="721" y="787" type="curve" smooth="yes"/>
      <point x="721" y="601"/>
      <point x="794" y="523"/>
      <point x="821" y="518" type="curve" smooth="yes"/>
      <point x="725" y="518"/>
      <point x="621" y="546"/>
      <point x="621" y="727" type="curve"/>
      <point x="500" y="740"/>
      <point x="433" y="816"/>
      <point x="433" y="957" type="curve"/>
      <point x="434" y="890"/>
      <point x="580" y="894"/>
      <point x="724" y="894" type="curve" smooth="yes"/>
      <point x="954" y="894"/>
      <point x="1050" y="682"/>
      <point x="1050" y="559" type="curve" smooth="yes"/>
      <point x="1050" y="413"/>
      <point x="973" y="268"/>
      <point x="755" y="268" type="curve" smooth="yes"/>
      <point x="364" y="268"/>
      <point x="310" y="804"/>
      <point x="281" y="1069" type="curve" smooth="yes"/>
      <point x="281" y="1050"/>
      <point x="376" y="1045"/>
    </contour>
  </outline>
</glyph>
<glyph name="gabardeva" format="1">
  <advance width="1221"/>
  <unicode hex="097B"/>
  <outline>
    <contour>
      <point x="196" y="-9" type="line"/>
      <point x="196" y="106" type="line"/>
      <point x="868" y="106" type="line"/>
      <point x="868" y="1150" type="line"/>
      <point x="452" y="1150" type="line"/>
      <point x="452" y="511" type="line"/>
      <point x="452" y="453"/>
      <point x="424" y="407"/>
      <point x="356" y="407" type="curve" smooth="yes"/>
      <point x="286" y="407"/>
      <point x="213" y="475"/>
      <point x="175" y="527" type="curve"/>
      <point x="161" y="536"/>
      <point x="148" y="546"/>
      <point x="142" y="554" type="curve" smooth="yes"/>
      <point x="118" y="591"/>
      <point x="102" y="630"/>
      <point x="102" y="667" type="curve" smooth="yes"/>
      <point x="102" y="765"/>
      <point x="209" y="758"/>
      <point x="287" y="759" type="curve"/>
      <point x="287" y="1150" type="line"/>
      <point x="19" y="1150" type="line"/>
      <point x="19" y="1274" type="line"/>
      <point x="1252" y="1274" type="line"/>
      <point x="1252" y="1150" type="line"/>
      <point x="1033" y="1150" type="line"/>
      <point x="1033" y="-9" type="line"/>
    </contour>
  </outline>
</glyph>
<glyph name=".notdef" format="1">
  <advance width="1266"/>
  <outline>
    <contour>
      <point x="231" y="1429" type="line"/>
      <point x="1054" y="1429" type="line"/>
      <point x="1054" y="0" type="line"/>
      <point x="231" y="0" type="line"/>
    </contour>
    <contour>
      <point x="420" y="60" type="line"/>
      <point x="987" y="312" type="line"/>
      <point x="866" y="1370" type="line"/>
      <point x="300" y="1118" type="line"/>
    </contour>
  </outline>
</glyph>
<glyph name="aivowelsigncandrabindudeva" format="1">
  <advance width="23"/>
  <outline>
    <component base="aivowelsigndeva"/>
    <component base="candrabindusmalldeva" xOffset="176"/>
    <contour>
      <point x="-366" y="1274" type="move" name="_mark0"/>
    </contour>
  </outline>
</glyph>
<glyph name="aivowelsignrephdeva" format="1">
  <advance width="0"/>
  <outline>
    <contour>
      <point x="-446" y="1244" type="line"/>
      <point x="-501" y="1349"/>
      <point x="-528" y="1390"/>
      <point x="-528" y="1488" type="curve" smooth="yes"/>
      <point x="-528" y="1630"/>
      <point x="-383" y="1771"/>
      <point x="-149" y="1771" type="curve" smooth="yes"/>
      <point x="-68" y="1771"/>
      <point x="-20" y="1765"/>
      <point x="67" y="1748" type="curve"/>
      <point x="55" y="1567" type="line"/>
      <point x="13" y="1572"/>
      <point x="-23" y="1574"/>
      <point x="-68" y="1574" type="curve" smooth="yes"/>
      <point x="-175" y="1574"/>
      <point x="-224" y="1515"/>
      <point x="-224" y="1425" type="curve" smooth="yes"/>
      <point x="-224" y="1373"/>
      <point x="-206" y="1313"/>
      <point x="-177" y="1244" type="curve"/>
    </contour>
    <component base="aivowelsigndeva"/>
    <contour>
      <point x="49" y="8" type="move" name="x38"/>
    </contour>
    <contour>
      <point x="-424" y="1282" type="move" name="_mark0"/>
    </contour>
  </outline>
</glyph>
<glyph name="auvowelsignanusvaradeva" format="1">
  <advance width="722"/>
  <outline>
    <contour>
      <point x="0" y="0" type="line"/>
      <point x="722" y="0" type="line"/>
      <point x="722" y="20" type="line"/>
      <point x="0" y="20" type="line"/>
    </contour>
  </outline>
</glyph>
<glyph name="baraprehalfdeva" format="1">
  <advance width="885"/>
  <outline>
    <contour>
      <point x="0" y="0" type="line"/>
      <point x="885" y="0" type="line"/>
      <point x="885" y="20" type="line"/>
      <point x="0" y="20" type="line"/>
    </contour>
  </outline>
</glyph>
<glyph name="chanuktadeva" format="1">
  <advance width="1446"/>
  <outline>
    <component base="chadeva"/>
    <component base="nuktadeva" xOffset="1341"/>
    <contour>
      <point x="998" y="1274" type="move" name="mark0"/>
    </contour>
  </outline>
</glyph>
<glyph name="chayadeva" format="1">
  <advance width="2719"/>
  <outline>
    <contour>
      <point x="0" y="0" type="line"/>
      <point x="2719" y="0" type="line"/>
      <point x="2719" y="20" type="line"/>
      <point x="0" y="20" type="line"/>
    </contour>
  </outline>
</glyph>
<glyph name="dabhaaltdeva" format="1">
  <advance width="1801"/>
  <outline>
    <contour>
      <point x="0" y="0" type="line"/>
      <point x="1801" y="0" type="line"/>
      <point x="1801" y="20" type="line"/>
      <point x="0" y="20" type="line"/>
    </contour>
  </outline>
</glyph>
<glyph name="dadhayadeva" format="1">
  <advance width="2356"/>
  <outline>
    <contour>
      <point x="0" y="0" type="line"/>
      <point x="2356" y="0" type="line"/>
      <point x="2356" y="20" type="line"/>
      <point x="0" y="20" type="line"/>
    </contour>
  </outline>
</glyph>
<glyph name="danuktadeva" format="1">
  <advance width="1145"/>
  <outline>
    <component base="dadeva"/>
    <component base="nuktadeva" xOffset="1052" yOffset="151"/>
    <contour>
      <point x="872" y="0" type="move" name="mark0"/>
    </contour>
  </outline>
</glyph>
<glyph name="danuktaraprehalfdeva" format="1">
  <advance width="1156"/>
  <outline>
    <contour>
      <point x="0" y="0" type="line"/>
      <point x="1156" y="0" type="line"/>
      <point x="1156" y="20" type="line"/>
      <point x="0" y="20" type="line"/>
    </contour>
  </outline>
</glyph>
<glyph name="ddanuktaraprehalfdeva" format="1">
  <advance width="1161"/>
  <outline>
    <contour>
      <point x="0" y="0" type="line"/>
      <point x="1161" y="0" type="line"/>
      <point x="1161" y="20" type="line"/>
      <point x="0" y="20" type="line"/>
    </contour>
  </outline>
</glyph>
<glyph name="ddhanuktaradeva" format="1">
  <advance width="1127"/>
  <outline>
    <contour>
      <point x="0" y="0" type="line"/>
      <point x="1127" y="0" type="line"/>
      <point x="1127" y="20" type="line"/>
      <point x="0" y="20" type="line"/>
    </contour>
  </outline>
</glyph>
<glyph name="ddharadeva" format="1">
  <advance width="1110"/>
  <outline>
    <component base="vattudeva" xOffset="1150"/>
    <component base="ddhadeva"/>
    <contour>
      <point x="679" y="1274" type="move" name="mark0"/>
    </contour>
  </outline>
</glyph>
<glyph name="dharadeva" format="1">
  <advance width="1307"/>
  <outline>
    <contour>
      <point x="0" y="0" type="line"/>
      <point x="1307" y="0" type="line"/>
      <point x="1307" y="20" type="line"/>
      <point x="0" y="20" type="line"/>
    </contour>
  </outline>
</glyph>
<glyph name="dharaprehalfdeva" format="1">
  <advance width="818"/>
  <outline>
    <contour>
      <point x="0" y="0" type="line"/>
      <point x="818" y="0" type="line"/>
      <point x="818" y="20" type="line"/>
      <point x="0" y="20" type="line"/>
    </contour>
  </outline>
</glyph>
<glyph name="ecandravowelsignrephdeva" format="1">
  <advance width="23"/>
  <outline>
    <contour>
      <point x="-348" y="1303" type="line"/>
      <point x="-392" y="1378"/>
      <point x="-419" y="1463"/>
      <point x="-437" y="1549" type="curve"/>
      <point x="-502" y="1488"/>
      <point x="-586" y="1430"/>
      <point x="-684" y="1430" type="curve" smooth="yes"/>
      <point x="-901" y="1430"/>
      <point x="-1025" y="1592"/>
      <point x="-1099" y="1790" type="curve"/>
      <point x="-1075" y="1798"/>
      <point x="-988" y="1829"/>
      <point x="-965" y="1837" type="curve"/>
      <point x="-913" y="1679"/>
      <point x="-843" y="1547"/>
      <point x="-690" y="1547" type="curve" smooth="yes"/>
      <point x="-534" y="1547"/>
      <point x="-481" y="1678"/>
      <point x="-447" y="1838" type="curve"/>
      <point x="-332" y="1797" type="line"/>
      <point x="-271" y="1837"/>
      <point x="-195" y="1856"/>
      <point x="-116" y="1856" type="curve" smooth="yes"/>
      <point x="-44" y="1856"/>
      <point x="27" y="1843"/>
      <point x="97" y="1817" type="curve"/>
      <point x="62" y="1706" type="line"/>
      <point x="11" y="1727"/>
      <point x="-41" y="1739"/>
      <point x="-89" y="1739" type="curve" smooth="yes"/>
      <point x="-207" y="1739"/>
      <point x="-280" y="1672"/>
      <point x="-280" y="1548" type="curve" smooth="yes"/>
      <point x="-280" y="1465"/>
      <point x="-242" y="1377"/>
      <point x="-194" y="1303" type="curve"/>
    </contour>
    <contour>
      <point x="-366" y="1253" type="move" name="_mark0"/>
    </contour>
  </outline>
</glyph>
<glyph name="evowelsignrephdeva" format="1">
  <advance width="0"/>
  <outline>
    <contour>
      <point x="-456" y="1244" type="line"/>
      <point x="-511" y="1349"/>
      <point x="-543" y="1383"/>
      <point x="-543" y="1493" type="curve" smooth="yes"/>
      <point x="-543" y="1635"/>
      <point x="-393" y="1778"/>
      <point x="-169" y="1778" type="curve" smooth="yes"/>
      <point x="-78" y="1778"/>
      <point x="-30" y="1772"/>
      <point x="57" y="1754" type="curve"/>
      <point x="45" y="1571" type="line"/>
      <point x="3" y="1576"/>
      <point x="-33" y="1578"/>
      <point x="-78" y="1578" type="curve" smooth="yes"/>
      <point x="-185" y="1578"/>
      <point x="-238" y="1512"/>
      <point x="-238" y="1425" type="curve" smooth="yes"/>
      <point x="-238" y="1373"/>
      <point x="-218" y="1315"/>
      <point x="-187" y="1244" type="curve"/>
    </contour>
    <component base="evowelsigndeva"/>
    <contour>
      <point x="49" y="8" type="move" name="x24"/>
    </contour>
    <contour>
      <point x="-424" y="1282" type="move" name="_mark0"/>
    </contour>
  </outline>
</glyph>
<glyph name="gharaprehalfdeva" format="1">
  <advance width="796"/>
  <outline>
    <contour>
      <point x="0" y="0" type="line"/>
      <point x="796" y="0" type="line"/>
      <point x="796" y="20" type="line"/>
      <point x="0" y="20" type="line"/>
    </contour>
  </outline>
</glyph>
<glyph name="haradeva" format="1">
  <advance width="1169"/>
  <outline>
    <contour>
      <point x="0" y="0" type="line"/>
      <point x="1169" y="0" type="line"/>
      <point x="1169" y="20" type="line"/>
      <point x="0" y="20" type="line"/>
    </contour>
  </outline>
</glyph>
<glyph name="hayadeva" format="1">
  <advance width="1749"/>
  <outline>
    <contour>
      <point x="0" y="0" type="line"/>
      <point x="1749" y="0" type="line"/>
      <point x="1749" y="20" type="line"/>
      <point x="0" y="20" type="line"/>
    </contour>
  </outline>
</glyph>
<glyph name="iivowelsignrephanusvaradeva" format="1">
  <advance width="723"/>
  <outline>
    <contour>
      <point x="688" y="1561" type="curve" smooth="yes"/>
      <point x="784" y="1561"/>
      <point x="825" y="1501"/>
      <point x="825" y="1449" type="curve" smooth="yes"/>
      <point x="825" y="1400"/>
      <point x="784" y="1338"/>
      <point x="688" y="1338" type="curve" smooth="yes"/>
      <point x="598" y="1338"/>
      <point x="551" y="1397"/>
      <point x="551" y="1449" type="curve" smooth="yes"/>
      <point x="551" y="1502"/>
      <point x="597" y="1561"/>
    </contour>
    <contour>
      <point x="264" y="1244" type="line"/>
      <point x="212" y="1349"/>
      <point x="178" y="1423"/>
      <point x="178" y="1533" type="curve" smooth="yes"/>
      <point x="178" y="1667"/>
      <point x="323" y="1831"/>
      <point x="574" y="1831" type="curve" smooth="yes"/>
      <point x="665" y="1831"/>
      <point x="720" y="1825"/>
      <point x="792" y="1812" type="curve"/>
      <point x="781" y="1632" type="line"/>
      <point x="742" y="1637"/>
      <point x="710" y="1641"/>
      <point x="672" y="1641" type="curve" smooth="yes"/>
      <point x="550" y="1641"/>
      <point x="482" y="1552"/>
      <point x="482" y="1457" type="curve" smooth="yes"/>
      <point x="482" y="1383"/>
      <point x="504" y="1321"/>
      <point x="541" y="1244" type="curve"/>
    </contour>
    <component base="iivowelsigndeva"/>
  </outline>
</glyph>
<glyph name="ivowelsign03deva" format="1">
  <advance width="571"/>
  <outline>
    <contour>
      <point x="204" y="1254" type="line"/>
      <point x="204" y="1361" type="line"/>
      <point x="204" y="1587"/>
      <point x="349" y="1754"/>
      <point x="628" y="1754" type="curve" smooth="yes"/>
      <point x="952" y="1754"/>
      <point x="1279" y="1564"/>
      <point x="1526" y="1258" type="curve"/>
      <point x="1363" y="1258" type="line"/>
      <point x="1131" y="1502"/>
      <point x="895" y="1620"/>
      <point x="657" y="1620" type="curve" smooth="yes"/>
      <point x="462" y="1620"/>
      <point x="357" y="1505"/>
      <point x="357" y="1347" type="curve" smooth="yes"/>
      <point x="357" y="1254" type="line"/>
    </contour>
    <component base="aavowelsigndeva"/>
  </outline>
</glyph>
<glyph name="japrehalfdeva" format="1">
  <advance width="1157"/>
  <outline>
    <contour>
      <point x="17" y="1154" type="line"/>
      <point x="17" y="1279" type="line"/>
      <point x="1227" y="1279" type="line"/>
      <point x="1227" y="1154" type="line"/>
    </contour>
    <contour>
      <point x="881" y="754" type="line"/>
      <point x="821" y="754"/>
      <point x="774" y="780"/>
      <point x="715" y="790" type="curve"/>
      <point x="817" y="705"/>
      <point x="942" y="563"/>
      <point x="942" y="423" type="curve" smooth="yes"/>
      <point x="942" y="247"/>
      <point x="818" y="142"/>
      <point x="642" y="142" type="curve" smooth="yes"/>
      <point x="358" y="142"/>
      <point x="190" y="477"/>
      <point x="76" y="717" type="curve"/>
      <point x="179" y="798" type="line"/>
      <point x="276" y="602"/>
      <point x="413" y="290"/>
      <point x="619" y="290" type="curve" smooth="yes"/>
      <point x="728" y="290"/>
      <point x="790" y="348"/>
      <point x="790" y="456" type="curve" smooth="yes"/>
      <point x="790" y="581"/>
      <point x="691" y="692"/>
      <point x="568" y="758" type="curve"/>
      <point x="601" y="891" type="line"/>
      <point x="1188" y="891" type="line"/>
      <point x="1188" y="754" type="line"/>
    </contour>
  </outline>
</glyph>
<glyph name="jhanuktaprehalfdeva" format="1">
  <advance width="1098"/>
  <outline>
    <contour>
      <point x="0" y="0" type="line"/>
      <point x="1098" y="0" type="line"/>
      <point x="1098" y="20" type="line"/>
      <point x="0" y="20" type="line"/>
    </contour>
  </outline>
</glyph>
<glyph name="jhanuktaraprehalfdeva" format="1">
  <advance width="1366"/>
  <outline>
    <contour>
      <point x="0" y="0" type="line"/>
      <point x="1366" y="0" type="line"/>
      <point x="1366" y="20" type="line"/>
      <point x="0" y="20" type="line"/>
    </contour>
  </outline>
</glyph>
<glyph name="kanuktaradeva" format="1">
  <advance width="1682"/>
  <outline>
    <component base="karadeva"/>
    <component base="nuktadeva" xOffset="1097" yOffset="78"/>
    <contour>
      <point x="813" y="0" type="move" name="mark0"/>
    </contour>
  </outline>
</glyph>
<glyph name="katadeva" format="1">
  <advance width="1919"/>
  <outline>
    <contour>
      <point x="0" y="0" type="line"/>
      <point x="1919" y="0" type="line"/>
      <point x="1919" y="20" type="line"/>
      <point x="0" y="20" type="line"/>
    </contour>
  </outline>
</glyph>
<glyph name="llanuktaradeva" format="1">
  <advance width="1661"/>
  <outline>
    <component base="lladeva"/>
    <component base="vattudeva" xOffset="1550"/>
    <component base="nuktadeva" xOffset="1060" yOffset="168"/>
    <contour>
      <point x="1093" y="1274" type="move" name="mark0"/>
    </contour>
  </outline>
</glyph>
<glyph name="llaradeva" format="1">
  <advance width="1600"/>
  <outline>
    <component base="vattudeva" xOffset="1550"/>
    <component base="lladeva"/>
    <contour>
      <point x="1093" y="1274" type="move" name="mark0"/>
    </contour>
  </outline>
</glyph>
<glyph name="naprehalfdeva" format="1">
  <advance width="752"/>
  <outline>
    <contour>
      <point x="0" y="0" type="line"/>
      <point x="752" y="0" type="line"/>
      <point x="752" y="20" type="line"/>
      <point x="0" y="20" type="line"/>
    </contour>
  </outline>
</glyph>
<glyph name="nganuktaaltdeva" format="1">
  <advance width="1543"/>
  <outline>
    <contour>
      <point x="0" y="0" type="line"/>
      <point x="1543" y="0" type="line"/>
      <point x="1543" y="20" type="line"/>
      <point x="0" y="20" type="line"/>
    </contour>
  </outline>
</glyph>
<glyph name="nganuktadeva" format="1">
  <advance width="1541"/>
  <outline>
    <component base="ngadeva"/>
    <component base="nuktadeva" xOffset="1343"/>
    <contour>
      <point x="974" y="1274" type="move" name="mark0"/>
    </contour>
  </outline>
</glyph>
<glyph name="nnaprehalfdeva" format="1">
  <advance width="1045"/>
  <outline>
    <contour>
      <point x="0" y="0" type="line"/>
      <point x="1045" y="0" type="line"/>
      <point x="1045" y="20" type="line"/>
      <point x="0" y="20" type="line"/>
    </contour>
  </outline>
</glyph>
<glyph name="nyaprehalfdeva" format="1">
  <advance width="1116"/>
  <outline>
    <contour>
      <point x="0" y="0" type="line"/>
      <point x="1116" y="0" type="line"/>
      <point x="1116" y="20" type="line"/>
      <point x="0" y="20" type="line"/>
    </contour>
  </outline>
</glyph>
<glyph name="phanuktaradeva" format="1">
  <advance width="1687"/>
  <outline>
    <component base="pharadeva"/>
    <component base="nuktadeva" xOffset="1091" yOffset="80"/>
    <contour>
      <point x="818" y="0" type="move" name="mark0"/>
    </contour>
  </outline>
</glyph>
<glyph name="rvocalicvowelsignlowdeva" format="1">
  <advance width="23"/>
  <outline>
    <contour>
      <point x="60" y="-771" type="line"/>
      <point x="-27" y="-811"/>
      <point x="-117" y="-834"/>
      <point x="-213" y="-834" type="curve" smooth="yes"/>
      <point x="-371" y="-834"/>
      <point x="-500" y="-756"/>
      <point x="-517" y="-606" type="curve"/>
      <point x="-517" y="-474"/>
      <point x="-397" y="-407"/>
      <point x="-279" y="-394" type="curve"/>
      <point x="-298" y="-380"/>
      <point x="-302" y="-424"/>
      <point x="-302" y="-406" type="curve" smooth="yes"/>
      <point x="-394" y="-375"/>
      <point x="-438" y="-385"/>
      <point x="-361" y="-486" type="curve"/>
      <point x="-359" y="-594"/>
      <point x="-276" y="-651"/>
      <point x="-193" y="-669" type="curve"/>
      <point x="-193" y="-671"/>
      <point x="-177" y="-676"/>
      <point x="-147" y="-683" type="curve" smooth="yes"/>
      <point x="-147" y="-697"/>
      <point x="-141" y="-704"/>
      <point x="-127" y="-704" type="curve" smooth="yes"/>
      <point x="-86" y="-697"/>
      <point x="-41" y="-679"/>
      <point x="13" y="-654" type="curve"/>
    </contour>
    <contour>
      <point x="-366" y="-21" type="move" name="_mark0"/>
    </contour>
  </outline>
</glyph>
<glyph name="shaladeva" format="1">
  <advance width="2305"/>
  <outline>
    <contour>
      <point x="0" y="0" type="line"/>
      <point x="2305" y="0" type="line"/>
      <point x="2305" y="20" type="line"/>
      <point x="0" y="20" type="line"/>
    </contour>
  </outline>
</glyph>
<glyph name="shaladevaMAR" format="1">
  <advance width="2363"/>
  <outline>
    <contour>
      <point x="0" y="0" type="line"/>
      <point x="2363" y="0" type="line"/>
      <point x="2363" y="20" type="line"/>
      <point x="0" y="20" type="line"/>
    </contour>
  </outline>
</glyph>
<glyph name="taprehalfdeva" format="1">
  <advance width="763"/>
  <outline>
    <contour>
      <point x="0" y="0" type="line"/>
      <point x="763" y="0" type="line"/>
      <point x="763" y="20" type="line"/>
      <point x="0" y="20" type="line"/>
    </contour>
  </outline>
</glyph>
<glyph name="tatadeva" format="1">
  <advance width="1500"/>
  <outline>
    <contour>
      <point x="1386" y="1118" type="line"/>
      <point x="1351" y="1049" type="line"/>
      <point x="1336" y="1049"/>
      <point x="1151" y="1048"/>
      <point x="1141" y="1047" type="curve"/>
      <point x="1129" y="1044"/>
      <point x="1119" y="125"/>
      <point x="1119" y="107" type="curve" smooth="yes"/>
      <point x="1119" y="86"/>
      <point x="1062" y="64"/>
      <point x="1102" y="36" type="curve"/>
      <point x="1051" y="528" type="line"/>
      <point x="983" y="580"/>
      <point x="734" y="620"/>
      <point x="734" y="658" type="curve" smooth="yes"/>
      <point x="668" y="665"/>
      <point x="587" y="671"/>
      <point x="535" y="638" type="curve"/>
      <point x="536" y="641" type="line"/>
      <point x="490" y="608"/>
      <point x="464" y="563"/>
      <point x="464" y="508" type="curve"/>
      <point x="456" y="370"/>
      <point x="576" y="261"/>
      <point x="664" y="181" type="curve"/>
      <point x="584" y="131" type="line"/>
      <point x="532" y="176"/>
      <point x="482" y="279"/>
      <point x="437" y="331" type="curve"/>
      <point x="681" y="330" type="line"/>
      <point x="624" y="398"/>
      <point x="575" y="524"/>
      <point x="575" y="616" type="curve"/>
      <point x="575" y="678"/>
      <point x="373" y="745"/>
      <point x="416" y="784" type="curve"/>
      <point x="94" y="836" type="line"/>
      <point x="494" y="907" type="line"/>
      <point x="1275" y="851" type="line"/>
      <point x="1227" y="1150" type="line"/>
      <point x="384" y="908" type="line"/>
      <point x="295" y="977" type="line"/>
    </contour>
  </outline>
</glyph>
<glyph name="thaprehalfdeva" format="1">
  <advance width="838"/>
  <outline>
    <contour>
      <point x="0" y="0" type="line"/>
      <point x="838" y="0" type="line"/>
      <point x="838" y="20" type="line"/>
      <point x="0" y="20" type="line"/>
    </contour>
  </outline>
</glyph>
<glyph name="tharaprehalfdeva" format="1">
  <advance width="880"/>
  <outline>
    <contour>
      <point x="0" y="0" type="line"/>
      <point x="880" y="0" type="line"/>
      <point x="880" y="20" type="line"/>
      <point x="0" y="20" type="line"/>
    </contour>
  </outline>
</glyph>
<glyph name="tthayadeva" format="1">
  <advance width="2456"/>
  <outline>
    <contour>
      <point x="0" y="0" type="line"/>
      <point x="2456" y="0" type="line"/>
      <point x="2456" y="20" type="line"/>
      <point x="0" y="20" type="line"/>
    </contour>
  </outline>
</glyph>
<glyph name="varadeva" format="1">
  <advance width="1189"/>
  <outline>
    <contour>
      <point x="0" y="0" type="line"/>
      <point x="1189" y="0" type="line"/>
      <point x="1189" y="20" type="line"/>
      <point x="0" y="20" type="line"/>
    </contour>
  </outline>
</glyph>
<glyph name="yaraprehalfdeva" format="1">
  <advance width="743"/>
  <outline>
    <contour>
      <point x="0" y="0" type="line"/>
      <point x="743" y="0" type="line"/>
      <point x="743" y="20" type="line"/>
      <point x="0" y="20" type="line"/>
    </contour>
  </outline>
</glyph>
